<svg width="16" height="17" viewBox="0 0 16 17" fill="none" xmlns="http://www.w3.org/2000/svg">
<path fill-rule="evenodd" clip-rule="evenodd" d="M14.8637 4.70706C15.1176 4.81584 15.2351 5.10978 15.1264 5.36359L14.6668 5.16663C15.1264 5.36359 15.1264 5.36347 15.1264 5.36359L15.1259 5.36471L15.1252 5.36637L15.123 5.37127L15.1159 5.38733C15.1099 5.40075 15.1014 5.41956 15.0903 5.44335C15.0681 5.49092 15.0357 5.55846 14.9927 5.64274C14.9068 5.81117 14.7785 6.04709 14.6058 6.32428C14.3221 6.77963 13.9151 7.35174 13.3748 7.92008L14.0203 8.56564C14.2156 8.7609 14.2156 9.07748 14.0203 9.27274C13.8251 9.46801 13.5085 9.46801 13.3132 9.27274L12.6462 8.60569C12.2064 8.97415 11.702 9.31999 11.1302 9.60412L11.7525 10.5606C11.9031 10.7921 11.8376 11.1018 11.6061 11.2524C11.3747 11.403 11.065 11.3375 10.9144 11.106L10.1882 9.99006C9.66869 10.1597 9.10615 10.275 8.50011 10.3164V11.5C8.50011 11.7761 8.27625 12 8.00011 12C7.72397 12 7.50011 11.7761 7.50011 11.5V10.3164C6.91276 10.2763 6.36623 10.1668 5.86005 10.0056L5.144 11.106C4.99339 11.3375 4.68367 11.403 4.45221 11.2524C4.22075 11.1018 4.15521 10.7921 4.30581 10.5607L4.91409 9.62581C4.33783 9.3444 3.82937 9.00008 3.38578 8.63214L2.74512 9.27279C2.54986 9.46805 2.23328 9.46805 2.03802 9.27279C1.84276 9.07753 1.84276 8.76095 2.03802 8.56568L2.65386 7.94984C2.10415 7.37671 1.69033 6.79767 1.40201 6.33641C1.22673 6.05599 1.09656 5.81706 1.00942 5.64643C0.965817 5.56105 0.932898 5.4926 0.91041 5.44439C0.899163 5.42028 0.890516 5.40122 0.884439 5.38762L0.877244 5.37136L0.875082 5.3664L0.874358 5.36472L0.874086 5.36409C0.874035 5.36397 0.873873 5.36359 1.33345 5.16663L0.874086 5.36409C0.765308 5.11027 0.882671 4.81584 1.13649 4.70706C1.39009 4.59837 1.68376 4.71566 1.79275 4.96905C1.79279 4.96913 1.79271 4.96896 1.79275 4.96905L1.79339 4.97051L1.79743 4.97965C1.80136 4.98845 1.80776 5.00257 1.81665 5.02162C1.83442 5.05972 1.86214 5.11747 1.9 5.19161C1.9758 5.34003 2.09191 5.55348 2.24998 5.80637C2.56705 6.31362 3.04788 6.97136 3.7039 7.58103C4.28117 8.1175 4.98856 8.61167 5.83459 8.93717C6.47092 9.18199 7.19041 9.3333 8.00011 9.3333C8.82792 9.3333 9.56153 9.17514 10.2084 8.92051C11.0494 8.58952 11.7519 8.09213 12.3246 7.55463C12.971 6.94794 13.4447 6.29674 13.7571 5.79543C13.9128 5.5455 14.0272 5.33481 14.1019 5.18841C14.1392 5.11527 14.1665 5.05834 14.184 5.0208C14.1927 5.00203 14.199 4.98812 14.2029 4.97946L14.2069 4.97047L14.2072 4.96967C14.2072 4.96961 14.2072 4.96974 14.2072 4.96967M14.8637 4.70706C14.61 4.59831 14.3161 4.71599 14.2072 4.96967ZM1.79275 4.96905C1.79279 4.96913 1.79271 4.96896 1.79275 4.96905Z" fill="#596575"/>
</svg>
