<svg width="26" height="26" viewBox="0 0 26 26" fill="none" xmlns="http://www.w3.org/2000/svg">
<path d="M15.2717 4.95369C15.6885 5.06537 15.9358 5.49376 15.8242 5.91053L11.685 21.3581C11.5733 21.7749 11.1449 22.0222 10.7282 21.9106C10.3114 21.7989 10.0641 21.3705 10.1757 20.9537L14.3149 5.50612C14.4266 5.08935 14.855 4.84202 15.2717 4.95369Z" fill="#3341FB"/>
<path d="M17.6276 8.13318C17.9162 7.81247 18.4102 7.78647 18.7309 8.07511L20.5408 9.70401C21.3078 10.3943 21.9441 10.9669 22.381 11.4862C22.8404 12.0323 23.1669 12.619 23.1669 13.3433C23.1669 14.0676 22.8404 14.6543 22.381 15.2004C21.9441 15.7197 21.3078 16.2923 20.5408 16.9826L18.7309 18.6115C18.4102 18.9002 17.9162 18.8742 17.6276 18.5534C17.3389 18.2327 17.3649 17.7388 17.6856 17.4501L19.4528 15.8597C20.2735 15.121 20.8268 14.6206 21.1853 14.1945C21.5293 13.7856 21.6044 13.5469 21.6044 13.3433C21.6044 13.1397 21.5293 12.901 21.1853 12.4921C20.8268 12.066 20.2735 11.5656 19.4528 10.827L17.6856 9.23651C17.3649 8.94787 17.3389 8.4539 17.6276 8.13318Z" fill="#3341FB"/>
<path d="M8.31429 9.23651C8.635 8.94787 8.661 8.4539 8.37236 8.13318C8.08372 7.81247 7.58974 7.78647 7.26903 8.07511L5.45915 9.70401C4.69212 10.3943 4.05587 10.9669 3.61898 11.4862C3.15958 12.0323 2.83301 12.619 2.83301 13.3433C2.83301 14.0676 3.15958 14.6543 3.61898 15.2004C4.05587 15.7197 4.69211 16.2923 5.45913 16.9826L7.26903 18.6115C7.58974 18.9002 8.08372 18.8742 8.37236 18.5534C8.661 18.2327 8.635 17.7388 8.31429 17.4501L6.54713 15.8597C5.72643 15.121 5.1731 14.6206 4.81466 14.1945C4.47065 13.7856 4.39551 13.5469 4.39551 13.3433C4.39551 13.1397 4.47065 12.901 4.81466 12.4921C5.1731 12.066 5.72643 11.5656 6.54713 10.827L8.31429 9.23651Z" fill="#3341FB"/>
</svg>
