<svg width="16" height="16" viewBox="0 0 16 16" fill="none" xmlns="http://www.w3.org/2000/svg">
  <path fill-rule="evenodd" clip-rule="evenodd" d="M3.18306 3.18306C3.42714 2.93898 3.82286 2.93898 4.06694 3.18306L8.00002 7.11614L11.9331 3.18309C12.1771 2.93902 12.5729 2.93902 12.8169 3.18309C13.061 3.42717 13.061 3.8229 12.8169 4.06698L8.8839 8.00002L12.8169 11.933C13.061 12.1771 13.061 12.5728 12.8169 12.8169C12.5728 13.061 12.1771 13.061 11.933 12.8169L8.00002 8.8839L4.06698 12.8169C3.8229 13.061 3.42717 13.061 3.1831 12.8169C2.93902 12.5729 2.93902 12.1771 3.1831 11.9331L7.11613 8.00002L3.18306 4.06694C2.93898 3.82286 2.93898 3.42714 3.18306 3.18306Z" fill="#1C274C"/>
</svg>