<svg width="10" height="10" viewBox="0 0 10 10" fill="none" xmlns="http://www.w3.org/2000/svg">
  <path fill-rule="evenodd" clip-rule="evenodd" d="M0.183058 0.183058C0.427136 -0.0610194 0.822864 -0.0610194 1.06694 0.183058L5.00002 4.11614L8.93306 0.183094C9.17714 -0.060984 9.57286 -0.060984 9.81694 0.183094C10.061 0.427171 10.061 0.822899 9.81694 1.06698L5.8839 5.00002L9.81691 8.93302C10.061 9.1771 10.061 9.57283 9.81691 9.81691C9.57283 10.061 9.1771 10.061 8.93302 9.81691L5.00002 5.8839L1.06698 9.81694C0.822901 10.061 0.427173 10.061 0.183095 9.81694C-0.0609823 9.57286 -0.0609823 9.17714 0.183095 8.93306L4.11613 5.00002L0.183058 1.06694C-0.0610194 0.822864 -0.0610194 0.427136 0.183058 0.183058Z" fill="#1C274C" />
</svg>