<svg width="26" height="26" viewBox="0 0 26 26" fill="none" xmlns="http://www.w3.org/2000/svg">
<path fill-rule="evenodd" clip-rule="evenodd" d="M16.7614 2.14963C18.4871 1.9031 20.0311 3.24218 20.0311 4.98542V6.41928C21.2701 7.07422 22.1144 8.376 22.1144 9.87498V20.2917C22.1144 22.449 20.3655 24.1979 18.2082 24.1979H7.7915C5.63414 24.1979 3.88525 22.449 3.88525 20.2917V5.70832C3.88525 5.69863 3.88543 5.68899 3.88578 5.67939C3.88543 5.6644 3.88525 5.64936 3.88525 5.63429C3.88525 4.69027 4.5794 3.88991 5.51393 3.75641L16.7614 2.14963ZM5.44775 7.53123V20.2917C5.44775 21.5861 6.49709 22.6354 7.7915 22.6354H18.2082C19.5026 22.6354 20.5519 21.5861 20.5519 20.2917V9.87498C20.5519 8.58057 19.5026 7.53123 18.2082 7.53123H5.44775ZM5.7822 5.96873H18.4686V4.98542C18.4686 4.19304 17.7668 3.58437 16.9824 3.69642L5.7349 5.30321C5.57014 5.32674 5.44775 5.46785 5.44775 5.63429C5.44775 5.819 5.59749 5.96873 5.7822 5.96873ZM8.05192 13C8.05192 12.5685 8.4017 12.2187 8.83317 12.2187H17.1665C17.598 12.2187 17.9478 12.5685 17.9478 13C17.9478 13.4315 17.598 13.7812 17.1665 13.7812H8.83317C8.4017 13.7812 8.05192 13.4315 8.05192 13ZM8.05192 16.6458C8.05192 16.2143 8.4017 15.8646 8.83317 15.8646H14.5623C14.9938 15.8646 15.3436 16.2143 15.3436 16.6458C15.3436 17.0773 14.9938 17.4271 14.5623 17.4271H8.83317C8.4017 17.4271 8.05192 17.0773 8.05192 16.6458Z" fill="#3341FB"/>
</svg>
