<svg width="24" height="24" viewBox="0 0 24 24" fill="none" xmlns="http://www.w3.org/2000/svg">
    <path fill-rule="evenodd" clip-rule="evenodd" d="M15.6111 1.58365C17.2678 1.34698 18.75 2.6325 18.75 4.30601V5.68252C19.9395 6.31126 20.75 7.56097 20.75 8.99999V19C20.75 21.0711 19.0711 22.75 17 22.75H7C4.92893 22.75 3.25 21.0711 3.25 19V4.99999C3.25 4.9907 3.25017 4.98144 3.2505 4.97222C3.25017 4.95783 3.25 4.9434 3.25 4.92893C3.25 4.02267 3.91638 3.25432 4.81353 3.12616L15.6111 1.58365ZM4.75 6.74999V19C4.75 20.2426 5.75736 21.25 7 21.25H17C18.2426 21.25 19.25 20.2426 19.25 19V8.99999C19.25 7.75735 18.2426 6.74999 17 6.74999H4.75ZM5.07107 5.24999H17.25V4.30601C17.25 3.54533 16.5763 2.961 15.8232 3.06858L5.02566 4.61108C4.86749 4.63368 4.75 4.76915 4.75 4.92893C4.75 5.10625 4.89375 5.24999 5.07107 5.24999ZM7.25 12C7.25 11.5858 7.58579 11.25 8 11.25H16C16.4142 11.25 16.75 11.5858 16.75 12C16.75 12.4142 16.4142 12.75 16 12.75H8C7.58579 12.75 7.25 12.4142 7.25 12ZM7.25 15.5C7.25 15.0858 7.58579 14.75 8 14.75H13.5C13.9142 14.75 14.25 15.0858 14.25 15.5C14.25 15.9142 13.9142 16.25 13.5 16.25H8C7.58579 16.25 7.25 15.9142 7.25 15.5Z" fill="#1C274D"/>
</svg>