<svg xmlns="http://www.w3.org/2000/svg" width="18" height="18" fill="none" viewBox="0 0 18 18">
  <path fill="#94B2FF" d="M9.563 8.25a.563.563 0 0 0-1.126 0v1.5a.562.562 0 1 0 1.126 0v-1.5Z"/>
  <path fill="#94B2FF" fill-rule="evenodd" d="m10.294 1.52 1.825.305c.867.144 1.569.261 2.118.425.572.17 1.045.409 1.409.838.364.43.522.935.595 1.527.072.57.072 1.281.072 2.16v4.45c0 .879 0 1.59-.072 2.16-.073.592-.231 1.097-.595 1.527-.364.43-.837.668-1.409.838-.549.164-1.251.281-2.118.425l-1.825.305c-.775.129-1.416.236-1.928.248-.536.013-1.034-.073-1.45-.425-.35-.297-.523-.683-.614-1.116H5.96c-.85 0-1.544 0-2.092-.073-.573-.077-1.07-.244-1.467-.64-.396-.397-.563-.894-.64-1.467-.074-.548-.074-1.242-.073-2.092v-3.83c0-.85 0-1.544.073-2.092.077-.573.244-1.07.64-1.467.397-.396.894-.563 1.467-.64.548-.074 1.242-.074 2.092-.074h.342c.09-.432.264-.818.615-1.115.415-.352.913-.438 1.45-.425.51.012 1.152.12 1.927.248ZM6.187 13.001c0 .387 0 .741.01 1.062H6c-.9 0-1.518-.002-1.982-.064-.449-.06-.668-.168-.821-.32-.153-.154-.26-.373-.32-.822-.063-.464-.064-1.082-.064-1.982v-3.75c0-.9 0-1.518.063-1.982.06-.449.168-.668.32-.821.154-.153.373-.26.822-.32C4.482 3.938 5.1 3.936 6 3.936h.196c-.009.32-.009.675-.008 1.062V13ZM8.34 2.397c-.407-.01-.58.06-.695.158-.115.098-.214.257-.27.66-.06.418-.061.987-.061 1.826v7.918c0 .839 0 1.408.06 1.826.057.403.156.562.271.66.115.097.288.168.695.158.422-.01.984-.102 1.812-.24l1.746-.291c.912-.152 1.545-.259 2.02-.4.458-.136.701-.288.87-.487.17-.2.279-.465.338-.94.062-.49.063-1.132.063-2.057V6.812c0-.925-.002-1.566-.063-2.057-.06-.476-.168-.74-.337-.94-.17-.2-.413-.35-.872-.487-.474-.141-1.107-.248-2.019-.4l-1.746-.291c-.828-.138-1.39-.23-1.812-.24Z" clip-rule="evenodd"/>
</svg>
