<svg xmlns="http://www.w3.org/2000/svg" width="24" height="24" fill="none" viewBox="0 0 24 24">
  <path stroke="currentColor" stroke-width="2" d="M9 3.758C9 2.788 9.788 2 10.76 2h2.483C14.213 2 15 2.787 15 3.758c0 1.354 1.466 2.2 2.638 1.523a1.758 1.758 0 0 1 2.402.644l1.241 2.15a1.758 1.758 0 0 1-.643 2.402c-1.172.677-1.172 2.369 0 3.046.84.485 1.129 1.56.643 2.402l-1.241 2.15a1.758 1.758 0 0 1-2.402.644c-1.172-.677-2.638.17-2.638 1.523 0 .97-.787 1.758-1.758 1.758h-2.483A1.758 1.758 0 0 1 9 20.242c0-1.354-1.465-2.2-2.637-1.523a1.758 1.758 0 0 1-2.402-.644l-1.242-2.15a1.758 1.758 0 0 1 .644-2.402c1.172-.677 1.172-2.369 0-3.046a1.758 1.758 0 0 1-.644-2.402l1.242-2.15a1.758 1.758 0 0 1 2.402-.644C7.535 5.958 9 5.111 9 3.758Z"/>
  <path stroke="currentColor" stroke-width="2" d="M16 12a4 4 0 1 1-8 0 4 4 0 0 1 8 0Z"/>
</svg>
