<svg width="16" height="13" viewBox="0 0 16 13" fill="none" xmlns="http://www.w3.org/2000/svg">
<path fill-rule="evenodd" clip-rule="evenodd" d="M7.99992 3.99996C6.61921 3.99996 5.49992 5.11925 5.49992 6.49996C5.49992 7.88067 6.61921 8.99996 7.99992 8.99996C9.38063 8.99996 10.4999 7.88067 10.4999 6.49996C10.4999 5.11925 9.38063 3.99996 7.99992 3.99996ZM6.49992 6.49996C6.49992 5.67153 7.17149 4.99996 7.99992 4.99996C8.82835 4.99996 9.49992 5.67153 9.49992 6.49996C9.49992 7.32839 8.82835 7.99996 7.99992 7.99996C7.17149 7.99996 6.49992 7.32839 6.49992 6.49996Z" fill="#596575"/>
<path fill-rule="evenodd" clip-rule="evenodd" d="M7.99992 0.666626C4.9905 0.666626 2.96345 2.46942 1.78696 3.99787L1.76575 4.02543C1.49968 4.37098 1.25463 4.68924 1.08838 5.06556C0.910348 5.46854 0.833252 5.90775 0.833252 6.49996C0.833252 7.09217 0.910348 7.53138 1.08838 7.93436C1.25463 8.31068 1.49968 8.62894 1.76575 8.9745L1.78696 9.00205C2.96345 10.5305 4.9905 12.3333 7.99992 12.3333C11.0093 12.3333 13.0364 10.5305 14.2129 9.00205L14.2341 8.97451C14.5002 8.62895 14.7452 8.31069 14.9115 7.93436C15.0895 7.53138 15.1666 7.09217 15.1666 6.49996C15.1666 5.90775 15.0895 5.46854 14.9115 5.06556C14.7452 4.68923 14.5002 4.37097 14.2341 4.02541L14.2129 3.99787C13.0364 2.46942 11.0093 0.666626 7.99992 0.666626ZM2.5794 4.60783C3.66568 3.19657 5.43349 1.66663 7.99992 1.66663C10.5663 1.66663 12.3342 3.19657 13.4204 4.60783C13.7128 4.98769 13.8841 5.21466 13.9967 5.46966C14.102 5.70797 14.1666 5.99925 14.1666 6.49996C14.1666 7.00067 14.102 7.29195 13.9967 7.53026C13.8841 7.78526 13.7128 8.01223 13.4204 8.39209C12.3342 9.80335 10.5663 11.3333 7.99992 11.3333C5.43349 11.3333 3.66568 9.80335 2.5794 8.39209C2.28701 8.01223 2.11574 7.78525 2.00309 7.53026C1.89781 7.29195 1.83325 7.00067 1.83325 6.49996C1.83325 5.99925 1.89781 5.70797 2.00309 5.46966C2.11574 5.21466 2.28701 4.98769 2.5794 4.60783Z" fill="#596575"/>
</svg>