<svg width="14" height="14" viewBox="0 0 14 14" fill="none" xmlns="http://www.w3.org/2000/svg">
<path fill-rule="evenodd" clip-rule="evenodd" d="M7 0.187594C7.34518 0.187594 7.625 0.467416 7.625 0.812594L7.625 6.3748L13.1872 6.3748C13.5323 6.3748 13.8122 6.65463 13.8122 6.9998C13.8122 7.34498 13.5323 7.6248 13.1872 7.6248L7.625 7.6248L7.625 13.1869C7.625 13.5321 7.34518 13.8119 7 13.8119C6.65482 13.8119 6.375 13.5321 6.375 13.1869V7.6248L0.812842 7.6248C0.467664 7.6248 0.187842 7.34498 0.187842 6.9998C0.187842 6.65463 0.467664 6.3748 0.812842 6.37481L6.375 6.3748L6.375 0.812594C6.375 0.467416 6.65482 0.187594 7 0.187594Z" fill="white"/>
</svg>
