<svg width="24" height="24" viewBox="0 0 24 24" fill="none" xmlns="http://www.w3.org/2000/svg">
    <path fill-rule="evenodd" clip-rule="evenodd"
          d="M12 5.18759C12.3452 5.18759 12.625 5.46742 12.625 5.81259L12.625 11.3748L18.1872 11.3748C18.5323 11.3748 18.8122 11.6546 18.8122 11.9998C18.8122 12.345 18.5323 12.6248 18.1872 12.6248L12.625 12.6248L12.625 18.1869C12.625 18.5321 12.3452 18.8119 12 18.8119C11.6548 18.8119 11.375 18.5321 11.375 18.1869V12.6248L5.81284 12.6248C5.46766 12.6248 5.18784 12.345 5.18784 11.9998C5.18784 11.6546 5.46766 11.3748 5.81284 11.3748L11.375 11.3748L11.375 5.81259C11.375 5.46742 11.6548 5.18759 12 5.18759Z"
          fill="currentColor"/>
</svg>
