<svg width="16" height="16" viewBox="0 0 16 16" fill="none" xmlns="http://www.w3.org/2000/svg">
<g clip-path="url(#clip0_4933_12165)">
<path fill-rule="evenodd" clip-rule="evenodd" d="M7.66634 1.8335C4.44468 1.8335 1.83301 4.44517 1.83301 7.66683C1.83301 10.8885 4.44468 13.5002 7.66634 13.5002C10.888 13.5002 13.4997 10.8885 13.4997 7.66683C13.4997 4.44517 10.888 1.8335 7.66634 1.8335ZM0.833008 7.66683C0.833008 3.89288 3.8924 0.833496 7.66634 0.833496C11.4403 0.833496 14.4997 3.89288 14.4997 7.66683C14.4997 9.37384 13.8738 10.9347 12.8389 12.1323L15.0199 14.3133C15.2152 14.5085 15.2152 14.8251 15.0199 15.0204C14.8246 15.2156 14.5081 15.2156 14.3128 15.0204L12.1318 12.8394C10.9342 13.8742 9.37335 14.5002 7.66634 14.5002C3.8924 14.5002 0.833008 11.4408 0.833008 7.66683Z" fill="#00132B" fill-opacity="0.651"/>
</g>
<defs>
<clipPath id="clip0_4933_12165">
<rect width="16" height="16" fill="white"/>
</clipPath>
</defs>
</svg>
