<svg width="12" height="18" viewBox="0 0 12 18" fill="none" xmlns="http://www.w3.org/2000/svg">
<path d="M9.71926 7.3125C9.4086 7.3125 9.15676 7.06066 9.15676 6.75L9.15676 1.5C9.15676 1.18934 9.4086 0.9375 9.71926 0.9375C10.0299 0.9375 10.2818 1.18934 10.2818 1.5L10.2818 6.75C10.2818 7.06066 10.0299 7.3125 9.71926 7.3125Z" fill="#0012FA" fill-opacity="0.8"/>
<path d="M2.25 9.375C1.00736 9.375 0 8.36764 0 7.125C0 5.88236 1.00736 4.875 2.25 4.875C3.49264 4.875 4.5 5.88236 4.5 7.125C4.5 8.36764 3.49264 9.375 2.25 9.375Z" fill="#0012FA" fill-opacity="0.8"/>
<path d="M9.75 8.625C8.50736 8.625 7.5 9.63236 7.5 10.875C7.5 12.1176 8.50736 13.125 9.75 13.125C10.9926 13.125 12 12.1176 12 10.875C12 9.63236 10.9926 8.625 9.75 8.625Z" fill="#0012FA" fill-opacity="0.8"/>
<path d="M1.65676 11.25C1.65676 10.9393 1.9086 10.6875 2.21926 10.6875C2.52992 10.6875 2.78176 10.9393 2.78176 11.25V16.5C2.78176 16.8107 2.52992 17.0625 2.21926 17.0625C1.9086 17.0625 1.65676 16.8107 1.65676 16.5V11.25Z" fill="#0012FA" fill-opacity="0.8"/>
<path d="M9.71926 17.0625C9.4086 17.0625 9.15676 16.8107 9.15676 16.5V15C9.15676 14.6893 9.4086 14.4375 9.71926 14.4375C10.0299 14.4375 10.2818 14.6893 10.2818 15V16.5C10.2818 16.8107 10.0299 17.0625 9.71926 17.0625Z" fill="#0012FA" fill-opacity="0.8"/>
<path d="M1.65676 1.5C1.65676 1.18934 1.9086 0.9375 2.21926 0.9375C2.52992 0.9375 2.78176 1.18934 2.78176 1.5V3C2.78176 3.31066 2.52992 3.5625 2.21926 3.5625C1.9086 3.5625 1.65676 3.31066 1.65676 3V1.5Z" fill="#0012FA" fill-opacity="0.8"/>
</svg>
