<svg width="18" height="18" viewBox="0 0 18 18" fill="none" xmlns="http://www.w3.org/2000/svg">
<path d="M9.5625 6.75C9.5625 6.43934 9.31066 6.1875 9 6.1875C8.68934 6.1875 8.4375 6.43934 8.4375 6.75L8.4375 8.43752H6.75C6.43934 8.43752 6.1875 8.68936 6.1875 9.00002C6.1875 9.31068 6.43934 9.56252 6.75 9.56252H8.4375V11.25C8.4375 11.5607 8.68934 11.8125 9 11.8125C9.31066 11.8125 9.5625 11.5607 9.5625 11.25L9.5625 9.56252H11.25C11.5607 9.56252 11.8125 9.31068 11.8125 9.00002C11.8125 8.68936 11.5607 8.43752 11.25 8.43752H9.5625V6.75Z" fill="white"/>
<path fill-rule="evenodd" clip-rule="evenodd" d="M9.04303 0.9375H8.95697C7.22568 0.937491 5.86889 0.937484 4.81028 1.07981C3.72673 1.22549 2.87171 1.5295 2.2006 2.2006C1.5295 2.87171 1.22549 3.72673 1.07981 4.81028C0.937484 5.86889 0.937491 7.22567 0.9375 8.95695V9.04303C0.937491 10.7743 0.937484 12.1311 1.07981 13.1897C1.22549 14.2733 1.5295 15.1283 2.2006 15.7994C2.87171 16.4705 3.72673 16.7745 4.81028 16.9202C5.8689 17.0625 7.22567 17.0625 8.95697 17.0625H9.04303C10.7743 17.0625 12.1311 17.0625 13.1897 16.9202C14.2733 16.7745 15.1283 16.4705 15.7994 15.7994C16.4705 15.1283 16.7745 14.2733 16.9202 13.1897C17.0625 12.1311 17.0625 10.7743 17.0625 9.04303V8.95697C17.0625 7.22567 17.0625 5.8689 16.9202 4.81028C16.7745 3.72673 16.4705 2.87171 15.7994 2.2006C15.1283 1.5295 14.2733 1.22549 13.1897 1.07981C12.1311 0.937484 10.7743 0.937491 9.04303 0.9375ZM2.9961 2.9961C3.42334 2.56886 4.00138 2.32369 4.96018 2.19478C5.93517 2.0637 7.21633 2.0625 9 2.0625C10.7837 2.0625 12.0648 2.0637 13.0398 2.19478C13.9986 2.32369 14.5767 2.56886 15.0039 2.9961C15.4311 3.42334 15.6763 4.00138 15.8052 4.96018C15.9363 5.93517 15.9375 7.21633 15.9375 9C15.9375 10.7837 15.9363 12.0648 15.8052 13.0398C15.6763 13.9986 15.4311 14.5767 15.0039 15.0039C14.5767 15.4311 13.9986 15.6763 13.0398 15.8052C12.0648 15.9363 10.7837 15.9375 9 15.9375C7.21633 15.9375 5.93517 15.9363 4.96018 15.8052C4.00138 15.6763 3.42334 15.4311 2.9961 15.0039C2.56886 14.5767 2.32369 13.9986 2.19478 13.0398C2.0637 12.0648 2.0625 10.7837 2.0625 9C2.0625 7.21633 2.0637 5.93517 2.19478 4.96018C2.32369 4.00138 2.56886 3.42334 2.9961 2.9961Z" fill="white"/>
</svg>
