<svg width="25" height="25" viewBox="0 0 25 25" fill="none" xmlns="http://www.w3.org/2000/svg">
<g clip-path="url(#clip0_4980_50955)">
<path fill-rule="evenodd" clip-rule="evenodd" d="M23.6944 5.03553C24.0823 5.42591 24.3608 5.91132 24.5022 6.44318C25.0249 8.40625 25.0249 12.5 25.0249 12.5C25.0249 12.5 25.0249 16.5938 24.5022 18.5568C24.3608 19.0887 24.0823 19.5741 23.6944 19.9645C23.3065 20.3548 22.8229 20.6365 22.2919 20.7812C20.3374 21.3068 12.5249 21.3068 12.5249 21.3068C12.5249 21.3068 4.7124 21.3068 2.75786 20.7812C2.22691 20.6365 1.7433 20.3548 1.35541 19.9645C0.967523 19.5741 0.688971 19.0887 0.54763 18.5568C0.0249024 16.5938 0.0249023 12.5 0.0249023 12.5C0.0249023 12.5 0.0249024 8.40625 0.54763 6.44318C0.688971 5.91132 0.967523 5.42591 1.35541 5.03553C1.7433 4.64515 2.22691 4.3635 2.75786 4.21875C4.7124 3.69318 12.5249 3.69318 12.5249 3.69318C12.5249 3.69318 20.3374 3.69318 22.2919 4.21875C22.8229 4.3635 23.3065 4.64515 23.6944 5.03553ZM16.5019 12.5L9.96777 8.7827V16.2174L16.5019 12.5Z" fill="#CDDEFF"/>
</g>
<defs>
<clipPath id="clip0_4980_50955">
<rect width="25" height="25" fill="white"/>
</clipPath>
</defs>
</svg>
