<svg xmlns="http://www.w3.org/2000/svg" width="24" height="24" fill="none" viewBox="0 0 24 24">
  <path fill="#3341FB" d="M0 0h24v24H0z"/>
  <path fill="#fff" d="M16.043 9.494c-.339-.48-.688-1.158-.71-1.911 0-.306-.972-.874-1.955-1.213-.995-.339-2.098-.47-2.163-.426-.066 0-1.147.131-1.366 1.355 0-.94-.23-1.573 1.387-1.366 0 0-.994-1.344-1.966-.71-.786.513-.677 1.693.546 2.37-.098.754-.196 3.43 3.114 3.223 0 0-.055.765.295 1.224.35.448.84.557 1.485.48.426-.043.841-.535 1.147-.884.186-.219 0 0 .35-.23.339-.23.535-1.136.535-1.136s-.338-.295-.677-.776h-.022Zm-2.676-.458c-.383 0-1.093-.153-.984-.809.186 0 1.006-.317 1.825 1.311-.219-.164-.47-.502-.841-.502Zm-1.573-3.343s.764.022 1.518.306c0 0-.502-1.442-1.518-.306ZM8.877 19.545c-3.725-3.125-3.67-6.511-2.819-8.991.732-2.13 2.25-3.55 2.25-3.55.186.633.7.83.7.83s-.087.513.065 1.267c.23 1.114.885 2.382 3.343 2.108 0 0-5.855 1.53-3.54 8.336ZM19.582 14.3s-.36.47-1.026.994c-.066.055-.131.11-.208.164a6.859 6.859 0 0 1-1.912 1.038c-1.966.699-6.75.48-7.242 2.097-.044-.098-.896-2.6.491-4.25.863-1.026 2.36-1.212 3.398-1.2.611 0 1.212.174 1.748.48.928.524 2.807 1.321 4.74.666l.011.011Zm-5.757-1.333s-1.332-.513-1.332-1.453c0 0-1.715.568-2.786 2.152 0 0 2.469-1.332 4.118-.699Z"/>
</svg>
